
<svg version="1.1" xmlns="http://www.w3.org/2000/svg" width="415" height="415">
<path d="M0 0 C136.95 0 273.9 0 415 0 C415 136.95 415 273.9 415 415 C278.05 415 141.1 415 0 415 C0 278.05 0 141.1 0 0 Z " fill="#0D1117" transform="translate(0,0)"/>
<path d="M0 0 C8.6368933 5.3179759 15.42842299 13.10325478 22.49584961 20.2824707 C24.09811415 21.89475461 25.70135182 23.50607198 27.30551147 25.11647034 C31.50983208 29.34163513 35.70242947 33.57823514 39.89215088 37.81787109 C46.60049665 44.60173145 53.32768605 51.36691926 60.05286789 58.13408089 C62.38905087 60.48783871 64.72088622 62.84583103 67.0519104 65.20469666 C68.49491791 66.66093484 69.93797948 68.11711947 71.38110352 69.57324219 C72.01923477 70.2212529 72.65736603 70.86926361 73.31483459 71.53691101 C77.03252518 75.2814199 80.88036589 78.79434885 84.87309837 82.24270725 C88.02727006 85.03049397 90.98408875 88.00317342 93.94702148 90.99145508 C94.60833572 91.65422958 95.26964996 92.31700409 95.95100403 92.99986267 C97.37233568 94.42497043 98.79251212 95.85123113 100.21162415 97.27854919 C102.46357767 99.54338513 104.71874407 101.80497845 106.97473145 104.0657959 C112.57441384 109.67877567 118.16861654 115.29720655 123.76300049 120.91546631 C128.50093418 125.67319754 133.24095586 130.42883017 137.98371887 135.18174744 C140.19471398 137.39917773 142.40265152 139.61962109 144.61047363 141.84020996 C145.97901684 143.21238903 147.34770252 144.58442602 148.71655273 145.95629883 C149.62235832 146.8698539 149.62235832 146.8698539 150.54646301 147.80186462 C154.21808136 151.47392922 158.02416181 154.9272421 161.95161247 158.32346153 C164.5552002 160.60888824 167.00636335 163.00604269 169.46582031 165.44677734 C169.96935532 165.94534744 170.47289032 166.44391754 170.99168396 166.95759583 C172.62468078 168.57621366 174.25396302 170.19849759 175.88256836 171.8215332 C176.72648667 172.66121045 176.72648667 172.66121045 177.58745384 173.51785088 C180.5567563 176.47227077 183.52325666 179.42946903 186.48730469 182.38916016 C189.53801745 185.43436088 192.59792237 188.4701492 195.66001606 191.50389957 C198.0268428 193.85208015 200.38691308 196.20696386 202.7451992 198.5637188 C203.8705929 199.68609703 204.99847396 200.80598722 206.12893105 201.92326546 C207.70806272 203.48527249 209.27738119 205.05654955 210.84472656 206.63037109 C212.18420097 207.96437706 212.18420097 207.96437706 213.55073547 209.32533264 C218.49115257 215.06168398 219.33100773 219.78660677 219.11303711 227.1340332 C218.58337141 232.48218551 216.78201913 235.06495937 212.95678711 238.72387695 C208.19160554 242.15480769 204.38617881 243.30524773 198.51928711 243.47387695 C197.4506543 243.52543945 196.38202148 243.57700195 195.28100586 243.63012695 C186.06508294 241.87670108 179.1851033 232.57464872 172.83178711 226.1340332 C171.78673275 225.08269047 170.74114954 224.03187319 169.69506836 222.98155212 C166.95833123 220.23160408 164.22723541 217.47612918 161.49780273 214.71893311 C157.13222774 210.31001583 152.75983092 205.90789203 148.3840332 201.50912285 C146.87064843 199.98565348 145.360802 198.45874512 143.85131836 196.93141174 C138.12456765 191.15431399 138.12456765 191.15431399 132.07788086 185.71777344 C126.06601409 180.56589219 120.58513358 174.83617781 115.00753784 169.22479248 C112.85640374 167.06076654 110.70204922 164.89999218 108.546875 162.73999023 C103.19761658 157.37744023 97.85384186 152.00943649 92.5098877 146.64160156 C87.98333733 142.09524709 83.4546945 137.5509962 78.92330933 133.00946045 C76.81202786 130.8917479 74.70380703 128.77102148 72.59570312 126.65014648 C65.40865244 119.35468548 65.40865244 119.35468548 57.83178711 112.47387695 C51.88625207 107.42594647 46.50154646 101.75208432 41.00753784 96.22479248 C38.85640374 94.06076654 36.70204922 91.89999218 34.546875 89.73999023 C29.19761658 84.37744023 23.85384186 79.00943649 18.5098877 73.64160156 C13.98333733 69.09524709 9.4546945 64.5509962 4.92330933 60.00946045 C2.81202786 57.8917479 0.70380703 55.77102148 -1.40429688 53.65014648 C-9.82519087 45.17003213 -9.82519087 45.17003213 -18.72439575 37.19923401 C-24.61474317 32.20013919 -28.5032988 27.22751916 -29.48461914 19.47387695 C-29.90246521 13.0728308 -28.86028915 8.9552947 -24.92211914 3.85668945 C-18.26646245 -3.28813577 -8.69338279 -4.72170599 0 0 Z " fill="#9586A4" transform="translate(111.168212890625,86.026123046875)"/>
<path d="M0 0 C11.65354771 9.31493822 21.82615875 20.71180801 32.3384676 31.27000523 C34.96973166 33.91137688 37.60434704 36.54940123 40.2387085 39.18768311 C46.9121414 45.87212936 53.58129321 52.56083926 60.25 59.25 C67.46724123 66.48934422 74.68526014 73.72790374 81.90817237 80.96159053 C85.02925832 84.08762234 88.14789938 87.21606583 91.26461077 90.34645891 C92.73785598 91.82539867 94.21226723 93.30316421 95.68719482 94.78042603 C97.47527552 96.5713503 99.26158092 98.36404977 101.0456543 100.15896606 C105.29572904 104.40941466 109.6201291 108.48977697 114.1767292 112.40942383 C116.91687148 114.79985591 119.50747631 117.3289178 122.09301758 119.88427734 C122.64532043 120.42679642 123.19762329 120.96931549 123.7666626 121.52827454 C125.56233095 123.29443833 127.35407597 125.06448974 129.14453125 126.8359375 C129.76230627 127.44714069 130.38008129 128.05834389 131.01657677 128.68806839 C134.2783967 131.91751066 137.53627826 135.15087623 140.79174805 138.38671875 C143.47316695 141.05026805 146.16286188 143.70501946 148.86010742 146.35253906 C152.13766059 149.56977772 155.40013007 152.80161358 158.65250206 156.04430008 C159.88688955 157.27016417 161.12637947 158.49091386 162.37116432 159.70621872 C175.73640686 172.7714651 175.73640686 172.7714651 176.1015625 182.78515625 C174.74041586 189.28965207 172.24423827 193.81459841 167 198 C161.67327354 201.05631846 157.13521963 201.3661833 151.23828125 199.93359375 C144.83150438 197.26130811 140.35730703 192.57981331 135.625 187.6875 C134.3698245 186.39716917 133.11200687 185.10940324 131.8515625 183.82421875 C131.30322754 183.25791748 130.75489258 182.69161621 130.18994141 182.1081543 C128.3474963 180.33451845 126.46944491 178.68388689 124.52584839 177.02485657 C119.24928913 172.41616608 114.33449786 167.45917939 109.39648438 162.49414062 C108.35433502 161.45006801 107.31195474 160.40622586 106.2693634 159.3625946 C104.03903677 157.12912653 101.81026845 154.89411946 99.5827179 152.65788269 C96.05414698 149.11569503 92.52168058 145.57740907 88.98864746 142.03967285 C80.85284815 133.89187319 72.72208824 125.73905077 64.59137726 117.58617401 C57.13428614 110.10885805 49.67611365 102.63262907 42.21387148 95.16045332 C38.70810111 91.64972666 35.20477734 88.13658279 31.70336151 84.62151337 C29.51832195 82.42896966 27.33117223 80.23854003 25.14346886 78.04865456 C24.13646735 77.03979465 23.13032362 76.03007764 22.12514687 75.01939964 C17.13990855 70.00775844 12.13115204 65.09598805 6.74657822 60.51242638 C1.22396514 55.7301924 -3.87100282 50.43598641 -9.05566406 45.29443359 C-10.52039596 43.84632416 -11.99048131 42.40360999 -13.46582031 40.96630859 C-15.61981978 38.86733133 -17.75666341 36.75213645 -19.890625 34.6328125 C-20.54484436 34.00126251 -21.19906372 33.36971252 -21.87310791 32.71902466 C-27.13570829 27.43201806 -30.45294336 21.89777853 -31.5 14.4375 C-30.66330031 8.68518965 -28.49594436 4.03584495 -24.125 0.125 C-15.55922732 -5.69972542 -8.44521389 -5.37763674 0 0 Z " fill="#9788A6" transform="translate(33,212)"/>
<path d="M0 0 C2.55002251 2.35002075 4.96447017 4.8204666 7.375 7.3125 C8.6301755 8.60283083 9.88799313 9.89059676 11.1484375 11.17578125 C11.69677246 11.74208252 12.24510742 12.30838379 12.81005859 12.8918457 C14.6525037 14.66548155 16.53055509 16.31611311 18.47415161 17.97514343 C23.75071087 22.58383392 28.66550214 27.54082061 33.60351562 32.50585938 C34.64566498 33.54993199 35.68804526 34.59377414 36.7306366 35.6374054 C38.96096323 37.87087347 41.18973155 40.10588054 43.4172821 42.34211731 C46.94585302 45.88430497 50.47831942 49.42259093 54.01135254 52.96032715 C62.14715185 61.10812681 70.27791176 69.26094923 78.40862274 77.41382599 C85.86571386 84.89114195 93.32388635 92.36737093 100.78612852 99.83954668 C104.29189889 103.35027334 107.79522266 106.86341721 111.29663849 110.37848663 C113.48167805 112.57103034 115.66882777 114.76145997 117.85653114 116.95134544 C118.86353265 117.96020535 119.86967638 118.96992236 120.87485313 119.98060036 C125.86009145 124.99224156 130.86884796 129.90401195 136.25342178 134.48757362 C141.77603486 139.2698076 146.87100282 144.56401359 152.05566406 149.70556641 C153.52039596 151.15367584 154.99048131 152.59639001 156.46582031 154.03369141 C158.61981978 156.13266867 160.75666341 158.24786355 162.890625 160.3671875 C163.54484436 160.99873749 164.19906372 161.63028748 164.87310791 162.28097534 C170.13570829 167.56798194 173.45294336 173.10222147 174.5 180.5625 C173.66330031 186.31481035 171.49594436 190.96415505 167.125 194.875 C162.20748222 198.21891209 158.15321349 199.18392633 152.22265625 199.4609375 C136.42609574 196.18502513 121.50074409 174.61652183 110.6615324 163.72999477 C108.03026834 161.08862312 105.39565296 158.45059877 102.7612915 155.81231689 C96.0878586 149.12787064 89.41870679 142.43916074 82.75 135.75 C75.53275877 128.51065578 68.31473986 121.27209626 61.09182763 114.03840947 C57.97074168 110.91237766 54.85210062 107.78393417 51.73538923 104.65354109 C50.26214402 103.17460133 48.78773277 101.69683579 47.31280518 100.21957397 C45.52472448 98.4286497 43.73841908 96.63595023 41.9543457 94.84103394 C37.70427096 90.59058534 33.3798709 86.51022303 28.8232708 82.59057617 C26.08312852 80.20014409 23.49252369 77.6710822 20.90698242 75.11572266 C20.35467957 74.57320358 19.80237671 74.03068451 19.2333374 73.47172546 C17.43766905 71.70556167 15.64592403 69.93551026 13.85546875 68.1640625 C13.23769373 67.55285931 12.61991871 66.94165611 11.98342323 66.31193161 C8.7216033 63.08248934 5.46372174 59.84912377 2.20825195 56.61328125 C-0.47316695 53.94973195 -3.16286188 51.29498054 -5.86010742 48.64746094 C-9.13766059 45.43022228 -12.40013007 42.19838642 -15.65250206 38.95569992 C-16.88688955 37.72983583 -18.12637947 36.50908614 -19.37116432 35.29378128 C-32.73640686 22.2285349 -32.73640686 22.2285349 -33.1015625 12.21484375 C-31.74041586 5.71034793 -29.24423827 1.18540159 -24 -3 C-15.31198426 -7.98492707 -7.66680127 -5.68675834 0 0 Z " fill="#9788A6" transform="translate(239,7)"/>
<path d="M0 0 C0.66 0.33 1.32 0.66 2 1 C-0.64 3.64 -3.28 6.28 -6 9 C-6 6 -6 6 -3.5625 3.375 C-2.716875 2.59125 -1.87125 1.8075 -1 1 C-0.67 0.67 -0.34 0.34 0 0 Z " fill="#847892" transform="translate(91,86)"/>
</svg>
