<svg version="1.1" xmlns="http://www.w3.org/2000/svg" width="415" height="415">
<path d="M0 0 C136.95 0 273.9 0 415 0 C415 136.95 415 273.9 415 415 C278.05 415 141.1 415 0 415 C0 278.05 0 141.1 0 0 Z " fill="#0D1117" transform="translate(0,0)"/>
<path d="M0 0 C8.6368933 5.3179759 15.42842299 13.10325478 22.49584961 20.2824707 C24.09811415 21.89475461 25.70135182 23.50607198 27.30551147 25.11647034 C31.50983208 29.34163513 35.70242947 33.57823514 39.89215088 37.81787109 C46.60049665 44.60173145 53.32768605 51.36691926 60.05286789 58.13408089 C62.38905087 60.48783871 64.72088622 62.84583103 67.0519104 65.20469666 C68.49491791 66.66093484 69.93797948 68.11711947 71.38110352 69.57324219 C72.01923477 70.2212529 72.65736603 70.86926361 73.31483459 71.53691101 C77.03252518 75.2814199 80.88036589 78.79434885 84.87309837 82.24270725 C88.02727006 85.03049397 90.98408875 88.00317342 93.94702148 90.99145508 C94.60833572 91.65422958 95.26964996 92.31700409 95.95100403 92.99986267 C97.37233568 94.42497043 98.79251212 95.85123113 100.21162415 97.27854919 C102.46357767 99.54338513 104.71874407 101.80497845 106.97473145 104.0657959 C112.57441384 109.67877567 118.16861654 115.29720655 123.76300049 120.91546631 C128.50093418 125.67319754 133.24095586 130.42883017 137.98371887 135.18174744 C140.19471398 137.39917773 142.40265152 139.61962109 144.61047363 141.84020996 C145.97901684 143.21238903 147.34770252 144.58442602 148.71655273 145.95629883 C149.62235832 146.8698539 149.62235832 146.8698539 150.54646301 147.80186462 C154.21808136 151.47392922 158.02416181 154.9272421 161.95161247 158.32346153 C164.5552002 160.60888824 167.00636335 163.00604269 169.46582031 165.44677734 C169.96935532 165.94534744 170.47289032 166.44391754 170.99168396 166.95759583 C172.62468078 168.57621366 174.25396302 170.19849759 175.88256836 171.8215332 C176.72648667 172.66121045 176.72648667 172.66121045 177.58745384 173.51785088 C180.5567563 176.47227077 183.52325666 179.42946903 186.48730469 182.38916016 C189.53801745 185.43436088 192.59792237 188.4701492 195.66001606 191.50389957 C198.0268428 193.85208015 200.38691308 196.20696386 202.7451992 198.5637188 C203.8705929 199.68609703 204.99847396 200.80598722 206.12893105 201.92326546 C207.70806272 203.48527249 209.27738119 205.05654955 210.84472656 206.63037109 C212.18420097 207.96437706 212.18420097 207.96437706 213.55073547 209.32533264 C218.49115257 215.06168398 219.33100773 219.78660677 219.11303711 227.1340332 C218.58337141 232.48218551 216.78201913 235.06495937 212.95678711 238.72387695 C208.19160554 242.15480769 204.38617881 243.30524773 198.51928711 243.47387695 C197.4506543 243.52543945 196.38202148 243.57700195 195.28100586 243.63012695 C186.06508294 241.87670108 179.1851033 232.57464872 172.83178711 226.1340332 C171.78673275 225.08269047 170.74114954 224.03187319 169.69506836 222.98155212 C166.95833123 220.23160408 164.22723541 217.47612918 161.49780273 214.71893311 C157.13222774 210.31001583 152.75983092 205.90789203 148.3840332 201.50912285 C146.87064843 199.98565348 145.360802 198.45874512 143.85131836 196.93141174 C138.12456765 191.15431399 138.12456765 191.15431399 132.07788086 185.71777344 C126.06601409 180.56589219 120.58513358 174.83617781 115.00753784 169.22479248 C112.85640374 167.06076654 110.70204922 164.89999218 108.546875 162.73999023 C103.19761658 157.37744023 97.85384186 152.00943649 92.5098877 146.64160156 C87.98333733 142.09524709 83.4546945 137.5509962 78.92330933 133.00946045 C76.81202786 130.8917479 74.70380703 128.77102148 72.59570312 126.65014648 C65.40865244 119.35468548 65.40865244 119.35468548 57.83178711 112.47387695 C51.88625207 107.42594647 46.50154646 101.75208432 41.00753784 96.22479248 C38.85640374 94.06076654 36.70204922 91.89999218 34.546875 89.73999023 C29.19761658 84.37744023 23.85384186 79.00943649 18.5098877 73.64160156 C13.98333733 69.09524709 9.4546945 64.5509962 4.92330933 60.00946045 C2.81202786 57.8917479 0.70380703 55.77102148 -1.40429688 53.65014648 C-9.82519087 45.17003213 -9.82519087 45.17003213 -18.72439575 37.19923401 C-24.61474317 32.20013919 -28.5032988 27.22751916 -29.48461914 19.47387695 C-29.90246521 13.0728308 -28.86028915 8.9552947 -24.92211914 3.85668945 C-18.26646245 -3.28813577 -8.69338279 -4.72170599 0 0 Z " fill="#9586A4" transform="translate(111.168212890625,86.026123046875)"/>
<path d="M0 0 C0.66 0.33 1.32 0.66 2 1 C-0.64 3.64 -3.28 6.28 -6 9 C-6 6 -6 6 -3.5625 3.375 C-2.716875 2.59125 -1.87125 1.8075 -1 1 C-0.67 0.67 -0.34 0.34 0 0 Z " fill="#847892" transform="translate(91,86)"/>
</svg>