<svg version="1.1" xmlns="http://www.w3.org/2000/svg" width="150" height="150">
<path d="M0 0 C49.5 0 99 0 150 0 C150 49.5 150 99 150 150 C100.5 150 51 150 0 150 C0 100.5 0 51 0 0 Z " fill="#0D1117" transform="translate(0,0)"/>
<path d="M0 0 C6.45688769 4.55228421 11.92936544 10.8115119 17.46875 16.40625 C18.34849487 17.28978149 19.22823975 18.17331299 20.13464355 19.08361816 C23.39656945 22.3597232 26.65392564 25.6403498 29.91094971 28.92132568 C33.1148726 32.14830538 36.32269116 35.3713808 39.53125 38.59375 C40.36168823 39.43248657 41.19212646 40.27122314 42.04772949 41.13537598 C46.30325227 45.40859323 50.63039045 49.51624826 55.20324707 53.44815063 C59.28210523 56.97104649 63.14605853 60.72599661 67.00292969 64.48803711 C68.00750717 65.46066864 69.02004236 66.42514277 70.04003906 67.3815918 C78.52615405 75.34917104 78.52615405 75.34917104 79.68969727 79.40283203 C79.73302658 82.24716057 79.27386084 84.48449724 77.9375 87 C74.80653167 88.61598365 72.47492459 88.38006988 69 88 C66.68710987 86.18251601 64.97591098 84.60396669 63.0625 82.4375 C62.09808158 81.39172928 61.13057963 80.34879457 60.16015625 79.30859375 C59.67740738 78.78949936 59.19465851 78.27040497 58.69728088 77.73558044 C57.08473691 76.08664902 55.42048163 74.6129822 53.65795898 73.12719727 C43.00425412 63.86908017 33.20061736 53.58754539 23.18896484 43.64892578 C20.39115085 40.87351589 17.5838692 38.10822968 14.76806641 35.35107422 C11.35227252 32.00624407 7.95387434 28.6446426 4.56723022 25.27030945 C3.27819284 23.99167259 1.98315343 22.71905678 0.68203735 21.45271301 C-1.13239417 19.68436745 -2.92360932 17.89528784 -4.7109375 16.09960938 C-5.25006271 15.58408005 -5.78918793 15.06855072 -6.34465027 14.53739929 C-9.10501933 11.71402158 -9.97683343 10.21943419 -10.39697266 6.23986816 C-10 3 -10 3 -8.9375 1.0625 C-5.65815876 -0.73584842 -3.69194477 -0.60523685 0 0 Z " fill="#9586A4" transform="translate(40,31)"/>
</svg>
